<svg xmlns="http://www.w3.org/2000/svg" viewBox="0 0 90 90"><defs><style>.cls-1{fill:#f4923b;}</style></defs><title>Asset 29ICONC</title><g id="Layer_2" data-name="Layer 2"><g id="Layer_1-2" data-name="Layer 1"><path class="cls-1" d="M82.5,0H7.5C3.37,0,0,3.67,0,8.18V65.45C0,70,3.37,73.64,7.5,73.64H33.76c-.08,3.26-.65,8.48-2.8,10.94a3.53,3.53,0,0,1-2.84,1.33,2.05,2.05,0,0,0,0,4.09H61.87a2.05,2.05,0,0,0,0-4.09A3.53,3.53,0,0,1,59,84.59c-2.14-2.46-2.71-7.68-2.8-11H82.5c4.13,0,7.5-3.67,7.5-8.19V8.18C90,3.67,86.63,0,82.5,0ZM45,69.56a4.12,4.12,0,1,1,3.76-4.11A4,4,0,0,1,45,69.56ZM7.5,57.27V8.18h75V57.27Z"/><path class="cls-1" d="M52.38,39a2.38,2.38,0,0,0,3.23.62h0l7-4.5A2.21,2.21,0,0,0,63.24,32a2.41,2.41,0,0,0-.65-.62l-7-4.5a2.38,2.38,0,0,0-3.23.62A2.2,2.2,0,0,0,53,30.57l4.08,2.63L53,35.83A2.21,2.21,0,0,0,52.38,39Z"/><path class="cls-1" d="M36.86,41.9a2.4,2.4,0,0,0,1.17.3,2.37,2.37,0,0,0,2-1.12l9.31-15.75a2.22,2.22,0,0,0-.86-3.08,2.37,2.37,0,0,0-3.18.83L36,38.83a2.19,2.19,0,0,0,.85,3.07Z"/><path class="cls-1" d="M22.77,35.07l7,4.5A2.38,2.38,0,0,0,33,39a2.2,2.2,0,0,0-.64-3.12h0L28.25,33.2l4.08-2.63A2.19,2.19,0,0,0,33,27.45a2.37,2.37,0,0,0-3.22-.62l-7,4.5a2.21,2.21,0,0,0-.65,3.12,2.14,2.14,0,0,0,.65.62Z"/></g></g></svg>