<svg xmlns="http://www.w3.org/2000/svg" viewBox="0 0 99.71 90"><defs><style>.cls-1{fill:#f4923b;}</style></defs><title>Asset 30ICONC</title><g id="Layer_2" data-name="Layer 2"><g id="Layer_1-2" data-name="Layer 1"><path class="cls-1" d="M77.58,57.59a1.54,1.54,0,0,0-2,.45l-3.57,4.09a2,2,0,0,0-.51,1.4v8.06a10.59,10.59,0,0,1-2.62,7.22,8.11,8.11,0,0,1-6.32,3H16.1a8.1,8.1,0,0,1-6.32-3,10.6,10.6,0,0,1-2.63-7.22V18.41a10.6,10.6,0,0,1,2.63-7.22,8.1,8.1,0,0,1,6.32-3H62.6a9,9,0,0,1,2.52.38,1.48,1.48,0,0,0,1.78-.51l2.74-3.13a2.17,2.17,0,0,0,.51-1.85,1.94,1.94,0,0,0-1-1.47A13.7,13.7,0,0,0,62.6,0H16.1A14.61,14.61,0,0,0,4.72,5.4,19.08,19.08,0,0,0,0,18.41V71.59a19.08,19.08,0,0,0,4.72,13A14.61,14.61,0,0,0,16.1,90H62.6A14.6,14.6,0,0,0,74,84.6a19.09,19.09,0,0,0,4.73-13V59.45A1.87,1.87,0,0,0,77.58,57.59Z"/><path class="cls-1" d="M35.77,55.23V73.64h16.1l37.56-43L73.33,12.27ZM49.63,67.5H46.5V61.36H41.14V57.79l6.48-7.42,8.5,9.72ZM74.17,23.59,54.61,46c-.64.72-1.25.75-1.85.06a1.44,1.44,0,0,1,.06-2.11L72.38,21.54c.63-.72,1.25-.74,1.85-.06A1.45,1.45,0,0,1,74.17,23.59Z"/><path class="cls-1" d="M98.15,12,89.65,2.3a4.93,4.93,0,0,0-7.6,0L76.91,8.18,93,26.59l5.14-5.88a6.38,6.38,0,0,0,1.56-4.35A6.37,6.37,0,0,0,98.15,12Z"/></g></g></svg>