<svg xmlns="http://www.w3.org/2000/svg" viewBox="0 0 70 70"><defs><style>.cls-1{fill:#fff;}.cls-2{fill:#f4923b;}</style></defs><title>Asset 39ICONC</title><g id="Layer_2" data-name="Layer 2"><g id="Layer_1-2" data-name="Layer 1"><circle class="cls-1" cx="35" cy="35" r="35"/><path class="cls-2" d="M35,21.16c-8.28,0-15,5.29-15,11.82,0,4.23,2.81,7.93,7,10-.23.79-1.48,5.09-1.53,5.43,0,0,0,.26.14.35a.44.44,0,0,0,.36,0c.47-.06,5.47-3.57,6.34-4.18a19.27,19.27,0,0,0,2.66.18c8.28,0,15-5.29,15-11.83S43.28,21.16,35,21.16Z"/><path class="cls-1" d="M26.71,37.11a.85.85,0,0,1-.87-.82V31.15H24.49a.85.85,0,0,1,0-1.7h4.43a.85.85,0,1,1,0,1.7H27.57v5.14A.85.85,0,0,1,26.71,37.11Z"/><path class="cls-1" d="M34.29,37.1a.71.71,0,0,1-.72-.38l-.42-1.12H30.51l-.43,1.12a.7.7,0,0,1-.72.38,1.3,1.3,0,0,1-.55-.12c-.24-.11-.47-.41-.21-1.23l2.07-5.44a1.21,1.21,0,0,1,2.31,0l2.07,5.44c.26.82,0,1.12-.2,1.23a1.31,1.31,0,0,1-.56.12Zm-1.6-3-.86-2.46L31,34.07Z"/><path class="cls-1" d="M36.44,37a.82.82,0,0,1-.83-.8V30.32a.89.89,0,0,1,1.77,0V35.4h1.84a.8.8,0,1,1,0,1.59Z"/><path class="cls-1" d="M41.25,37.1a.87.87,0,0,1-.87-.86V30.32a.87.87,0,1,1,1.74,0v1.86l2.41-2.42a.67.67,0,0,1,.48-.19.84.84,0,0,1,.6.26.82.82,0,0,1,.25.54.69.69,0,0,1-.19.53l-2,2,2.13,2.82a.84.84,0,0,1,.16.65.84.84,0,0,1-.85.74.83.83,0,0,1-.69-.34l-2-2.69-.3.3v1.89A.87.87,0,0,1,41.25,37.1Z"/></g></g></svg>