<svg xmlns="http://www.w3.org/2000/svg" viewBox="0 0 70 70"><defs><style>.cls-1{fill:#fff;}.cls-2{fill:#f4923b;}</style></defs><title>Asset 38ICONC</title><g id="Layer_2" data-name="Layer 2"><g id="Layer_1-2" data-name="Layer 1"><circle class="cls-1" cx="35" cy="35" r="35"/><g id="Page-1"><path id="Shape" class="cls-2" d="M30.48,35.67a9.78,9.78,0,0,1,.22-6.29.84.84,0,0,1,.55-.49l2.56-.68a.84.84,0,0,0,.62-.84l-.26-5.51a.85.85,0,0,0-.79-.81l-5.28-.44a.82.82,0,0,0-.81.49,23.14,23.14,0,0,0-.9,15.67A23.19,23.19,0,0,0,35,49.89a.83.83,0,0,0,1,0l4.35-3a.84.84,0,0,0,.28-1.09l-2.52-4.9a.84.84,0,0,0-1-.42l-2.56.69a.84.84,0,0,1-.72-.14,9.8,9.8,0,0,1-3.34-5.35Z"/><path class="cls-2" d="M39.07,39.19a.82.82,0,0,1-.3-1.14,6.3,6.3,0,0,0-2.3-8.58A.84.84,0,1,1,37.3,28a8,8,0,0,1,2.92,10.87A.85.85,0,0,1,39.07,39.19Z"/><path class="cls-2" d="M42.7,41.29a.85.85,0,0,1-.31-1.15,10.47,10.47,0,0,0-3.83-14.29.85.85,0,0,1-.31-1.15.84.84,0,0,1,1.15-.3A12.15,12.15,0,0,1,43.84,41a.84.84,0,0,1-.51.39A.82.82,0,0,1,42.7,41.29Z"/></g></g></g></svg>