<svg xmlns="http://www.w3.org/2000/svg" viewBox="0 0 70 70"><defs><style>.cls-1{fill:#fff;}.cls-2{fill:#f4923b;}</style></defs><title>Asset 28ICONC</title><g id="Layer_2" data-name="Layer 2"><g id="Layer_1-2" data-name="Layer 1"><circle class="cls-1" cx="35" cy="35" r="35"/><path class="cls-2" d="M39.31,27.61l-14.22,0a2.59,2.59,0,0,0-2.47,2.69v9.6a2.59,2.59,0,0,0,2.47,2.69h2.53v4.54a.44.44,0,0,0,.26.42.28.28,0,0,0,.15,0,.42.42,0,0,0,.31-.15l4-4.85,6.93,0a2.59,2.59,0,0,0,2.47-2.69V30.3A2.59,2.59,0,0,0,39.31,27.61ZM26.78,32.15H32.2a.44.44,0,0,1,.42.45.45.45,0,0,1-.42.46H26.78a.44.44,0,0,1-.41-.46A.43.43,0,0,1,26.78,32.15ZM37.62,38.5H26.78a.45.45,0,0,1,0-.9H37.62a.45.45,0,0,1,0,.9Zm0-2.72H26.78a.43.43,0,0,1-.41-.45.44.44,0,0,1,.41-.46H37.62a.44.44,0,0,1,.41.46A.43.43,0,0,1,37.62,35.78Z"/><path class="cls-2" d="M45.15,22.65l-14.23,0a2.59,2.59,0,0,0-2.47,2.69v1.42l10.86,0a3.47,3.47,0,0,1,3.31,3.6V40.85L44,42.47a.4.4,0,0,0,.31.15l.15,0a.45.45,0,0,0,.27-.42V37.63h.44a2.59,2.59,0,0,0,2.48-2.69v-9.6A2.59,2.59,0,0,0,45.15,22.65Z"/></g></g></svg>