<svg xmlns="http://www.w3.org/2000/svg" viewBox="0 0 90 90"><defs><style>.cls-1{fill:#f4923b;}</style></defs><title>Asset 28ICONC</title><g id="Layer_2" data-name="Layer 2"><g id="Layer_1-2" data-name="Layer 1"><path class="cls-1" d="M87.36,0H76.64A2.64,2.64,0,0,0,74,2.64V5.27H52.42a7.86,7.86,0,0,0-14.84,0H16V2.64A2.64,2.64,0,0,0,13.36,0H2.64A2.64,2.64,0,0,0,0,2.64V13.18a2.64,2.64,0,0,0,2.64,2.64H13.36A2.64,2.64,0,0,0,16,13.18V10.51H26.82a34.4,34.4,0,0,0-15.9,27,7.89,7.89,0,1,0,5.26.12A29,29,0,0,1,38,11.51a7.84,7.84,0,0,0,14,0A29,29,0,0,1,73.82,37.63a7.93,7.93,0,1,0,5.26-.12,34.31,34.31,0,0,0-15.9-27H74v2.63a2.64,2.64,0,0,0,2.64,2.64H87.36A2.64,2.64,0,0,0,90,13.18V2.64A2.64,2.64,0,0,0,87.36,0Z"/><path class="cls-1" d="M62.94,86.73a10.72,10.72,0,0,0-10-7.45H37.09a10.72,10.72,0,0,0-10,7.45A2.6,2.6,0,0,0,29.63,90H60.37A2.6,2.6,0,0,0,62.94,86.73Z"/><path class="cls-1" d="M68.29,54.08l-20.65-31v25a7.91,7.91,0,1,1-5.28,0v-25l-20.65,31A2.64,2.64,0,0,0,22,57.41a33.28,33.28,0,0,1,9.13,17.77A15.55,15.55,0,0,1,37.09,74H52.91a15.55,15.55,0,0,1,5.92,1.18A33.28,33.28,0,0,1,68,57.41,2.64,2.64,0,0,0,68.29,54.08Z"/></g></g></svg>