<svg xmlns="http://www.w3.org/2000/svg" viewBox="0 0 200 63.41"><defs><style>.cls-1{fill:#fff;}</style></defs><title>Asset 44ICONC</title><g id="Layer_2" data-name="Layer 2"><g id="Layer_1-2" data-name="Layer 1"><polygon class="cls-1" points="115.1 41.24 106.36 41.24 106.36 36.09 130.16 36.09 130.16 41.24 121.42 41.24 121.42 63.41 115.1 63.41 115.1 41.24"/><rect class="cls-1" x="132.53" y="36.09" width="6.32" height="27.32"/><polygon class="cls-1" points="149.62 36.09 149.62 52.67 163.2 36.09 168.43 36.09 168.43 63.4 162.19 63.4 162.19 46.82 148.57 63.4 143.38 63.4 143.38 36.09 149.62 36.09"/><path class="cls-1" d="M74.69,54.62A8.91,8.91,0,0,0,80.31,46a9.48,9.48,0,0,0-1.45-5.27,9.28,9.28,0,0,0-4.12-3.43,15.1,15.1,0,0,0-6.3-1.21H56.62V63.41h6.32V41.24h5.15a6.63,6.63,0,0,1,4.33,1.23A4.31,4.31,0,0,1,73.9,46a4.32,4.32,0,0,1-1.48,3.51,6.07,6.07,0,0,1-3.7,1.21v5.07h0L74,63.41h6.79Z"/><polygon class="cls-1" points="187.79 36.09 181.54 36.09 169.37 63.4 175.84 63.4 178.26 57.55 178.28 57.55 184.63 42.29 188.96 52.75 190.94 57.55 190.95 57.55 193.37 63.4 200 63.4 187.79 36.09"/><polygon class="cls-1" points="103.99 41.28 103.99 36.09 83.35 36.09 83.35 39.42 83.35 41.28 83.35 47.15 83.35 52.34 83.35 58.21 83.35 60.07 83.35 63.4 103.99 63.4 103.99 58.21 88.55 58.21 88.55 52.34 98.34 52.34 98.34 47.15 88.55 47.15 88.55 41.28 103.99 41.28"/><polygon class="cls-1" points="8.74 6.36 0 6.36 0 1.21 23.8 1.21 23.8 6.36 15.06 6.36 15.06 28.53 8.74 28.53 8.74 6.36"/><polygon class="cls-1" points="50.3 1.21 50.3 28.52 43.98 28.52 43.98 17.32 31.57 17.32 31.57 28.52 25.25 28.52 25.25 1.21 31.57 1.21 31.57 11.98 43.98 11.98 43.98 1.21 50.3 1.21"/><polygon class="cls-1" points="92.06 1.21 92.06 17.79 105.64 1.21 110.87 1.21 110.87 28.52 104.63 28.52 104.63 11.94 91.01 28.52 85.82 28.52 85.82 1.21 92.06 1.21"/><path class="cls-1" d="M133.85,14.44h5.78V25.52a16.49,16.49,0,0,1-5.15,2.58,20.28,20.28,0,0,1-5.89.89,16,16,0,0,1-7.65-1.81,13.48,13.48,0,0,1-5.33-5,13.82,13.82,0,0,1-1.93-7.27,13.83,13.83,0,0,1,1.93-7.28,13.45,13.45,0,0,1,5.37-5A16.26,16.26,0,0,1,128.7.74,16.83,16.83,0,0,1,135.22,2a12.94,12.94,0,0,1,4.92,3.51l-4.06,3.75A9.38,9.38,0,0,0,129,6.12a9.62,9.62,0,0,0-4.65,1.1,7.87,7.87,0,0,0-3.16,3.08,9.14,9.14,0,0,0-1.13,4.57,9,9,0,0,0,1.13,4.52,8.09,8.09,0,0,0,3.14,3.11,9.34,9.34,0,0,0,4.59,1.11,10.21,10.21,0,0,0,4.91-1.17Z"/><path class="cls-1" d="M53.19,14.87A14.87,14.87,0,1,1,68.06,29.73,14.87,14.87,0,0,1,53.19,14.87"/></g></g></svg>