<svg xmlns="http://www.w3.org/2000/svg" viewBox="0 0 70 70"><defs><style>.cls-1{fill:#f4923b;}.cls-2{fill:#fff;}</style></defs><title>Asset 42ICONC</title><g id="Layer_2" data-name="Layer 2"><g id="Layer_1-2" data-name="Layer 1"><circle class="cls-1" cx="35" cy="35" r="35"/><path class="cls-2" d="M40,26.14,23,26.18a3.11,3.11,0,0,0-3,3.23V40.93a3.1,3.1,0,0,0,3,3.22h3V49.6a.55.55,0,0,0,.32.51.39.39,0,0,0,.18,0,.51.51,0,0,0,.37-.18l4.85-5.82,8.31,0a3.11,3.11,0,0,0,3-3.23V29.37A3.11,3.11,0,0,0,40,26.14ZM25,31.59h6.5a.52.52,0,0,1,.5.54.53.53,0,0,1-.5.55H25a.53.53,0,0,1-.5-.55A.52.52,0,0,1,25,31.59Zm13,7.62H25a.52.52,0,0,1-.5-.54.53.53,0,0,1,.5-.55H38a.53.53,0,0,1,.5.55A.52.52,0,0,1,38,39.21ZM38,36H25a.53.53,0,0,1-.5-.55.52.52,0,0,1,.5-.54H38a.52.52,0,0,1,.5.54A.53.53,0,0,1,38,36Z"/><path class="cls-2" d="M47,20.19,30,20.15a3.11,3.11,0,0,0-3,3.23v1.7l13,0a4.16,4.16,0,0,1,4,4.32V42l1.63,2a.51.51,0,0,0,.37.18.58.58,0,0,0,.18,0,.55.55,0,0,0,.32-.51V38.16H47a3.11,3.11,0,0,0,3-3.23V23.42A3.1,3.1,0,0,0,47,20.19Z"/></g></g></svg>