<svg xmlns="http://www.w3.org/2000/svg" viewBox="0 0 45 45"><defs><style>.cls-1{fill:#f4923b;}.cls-2{fill:#fff;}</style></defs><title>Asset 34ICONC</title><g id="Layer_2" data-name="Layer 2"><g id="Layer_1-2" data-name="Layer 1"><circle class="cls-1" cx="22.5" cy="22.5" r="22.5"/><path class="cls-2" d="M26.1,16,13.58,16a2.28,2.28,0,0,0-2.17,2.37v8.45a2.28,2.28,0,0,0,2.17,2.37h2.23v4a.39.39,0,0,0,.23.37.35.35,0,0,0,.14,0,.37.37,0,0,0,.27-.13L20,29.2l6.09,0a2.28,2.28,0,0,0,2.18-2.37V18.35A2.28,2.28,0,0,0,26.1,16Zm-11,4h4.76a.4.4,0,0,1,0,.8H15.08a.4.4,0,0,1,0-.8Zm9.53,5.59H15.08a.4.4,0,0,1,0-.8h9.53a.4.4,0,0,1,0,.8Zm0-2.39H15.08a.4.4,0,0,1,0-.8h9.53a.4.4,0,0,1,0,.8Z"/><path class="cls-2" d="M31.24,11.62l-12.52,0A2.28,2.28,0,0,0,16.54,14v1.25l9.56,0A3.05,3.05,0,0,1,29,18.35v9.28l1.19,1.44a.39.39,0,0,0,.28.13l.13,0a.4.4,0,0,0,.23-.37v-4h.39a2.28,2.28,0,0,0,2.18-2.37V14A2.28,2.28,0,0,0,31.24,11.62Z"/></g></g></svg>