<svg xmlns="http://www.w3.org/2000/svg" viewBox="0 0 45 45"><defs><style>.cls-1{fill:#f4923b;}.cls-2{fill:#fff;}</style></defs><title>Asset 32ICONC</title><g id="Layer_2" data-name="Layer 2"><g id="Layer_1-2" data-name="Layer 1"><circle class="cls-1" cx="22.5" cy="22.5" r="22.5"/><path class="cls-2" d="M22.05,11.09c-6.91,0-12.5,4.41-12.5,9.86,0,3.52,2.34,6.6,5.86,8.35-.19.66-1.23,4.25-1.28,4.53,0,0,0,.21.12.29a.39.39,0,0,0,.3,0c.39-.06,4.56-3,5.28-3.49a16.12,16.12,0,0,0,2.22.15c6.9,0,12.5-4.41,12.5-9.85S29,11.09,22.05,11.09Z"/><path class="cls-1" d="M15.14,24.39a.7.7,0,0,1-.72-.69V19.42H13.29a.71.71,0,0,1,0-1.42H17a.71.71,0,0,1,0,1.42H15.86V23.7A.71.71,0,0,1,15.14,24.39Z"/><path class="cls-1" d="M21.46,24.38a.59.59,0,0,1-.6-.32l-.36-.93H18.3l-.35.93a.59.59,0,0,1-.6.32,1.19,1.19,0,0,1-.46-.1c-.2-.09-.39-.34-.17-1l1.72-4.55a1,1,0,0,1,1.92,0l1.73,4.53c.22.69,0,.94-.17,1a1.19,1.19,0,0,1-.46.1Zm-1.34-2.53L19.4,19.8l-.72,2.05Z"/><path class="cls-1" d="M23.25,24.28a.67.67,0,0,1-.69-.66v-4.9a.74.74,0,0,1,1.47,0V23h1.53a.66.66,0,1,1,0,1.32Z"/><path class="cls-1" d="M27.26,24.38a.73.73,0,0,1-.73-.72V18.72a.73.73,0,0,1,1.45,0v1.55l2-2a.56.56,0,0,1,.4-.16.72.72,0,0,1,.71.67.57.57,0,0,1-.16.44l-1.65,1.64,1.78,2.36a.67.67,0,0,1,.14.53.71.71,0,0,1-.72.62.7.7,0,0,1-.57-.29l-1.69-2.24-.25.25v1.58A.72.72,0,0,1,27.26,24.38Z"/></g></g></svg>