<svg xmlns="http://www.w3.org/2000/svg" viewBox="0 0 45 45"><defs><style>.cls-1{fill:#f4923b;}.cls-2{fill:#fff;}</style></defs><title>Asset 31ICONC</title><g id="Layer_2" data-name="Layer 2"><g id="Layer_1-2" data-name="Layer 1"><circle class="cls-1" cx="22.5" cy="22.5" r="22.5"/><g id="Page-1"><path id="Shape" class="cls-2" d="M18.55,22.79a8.4,8.4,0,0,1,.18-5.35.73.73,0,0,1,.48-.41l2.17-.58a.72.72,0,0,0,.53-.72l-.23-4.68a.71.71,0,0,0-.67-.68L16.53,10a.71.71,0,0,0-.7.42,19.72,19.72,0,0,0-.76,13.32,19.69,19.69,0,0,0,7.32,11.15.72.72,0,0,0,.81,0l3.7-2.57a.72.72,0,0,0,.23-.93L25,27.23a.71.71,0,0,0-.81-.36L22,27.46a.76.76,0,0,1-.62-.12,8.33,8.33,0,0,1-2.83-4.55Z"/><path class="cls-2" d="M25.85,25.79a.72.72,0,0,1-.26-1,5.34,5.34,0,0,0-1.95-7.29.71.71,0,0,1,.71-1.23,6.76,6.76,0,0,1,2.47,9.24A.71.71,0,0,1,25.85,25.79Z"/><path class="cls-2" d="M28.93,27.56a.71.71,0,0,1-.26-1,8.9,8.9,0,0,0-3.25-12.15.71.71,0,0,1,.71-1.23A10.32,10.32,0,0,1,29.9,27.3a.7.7,0,0,1-.43.34A.74.74,0,0,1,28.93,27.56Z"/></g></g></g></svg>